<svg width="116" height="120" xmlns="http://www.w3.org/2000/svg"><g fill="none" fill-rule="evenodd"><path d="M57.507.006V0h-.014v.006L1 27.914c0 67.462 55.557 89.708 56.493 90.08V118l.007-.003.007.003v-.006c.937-.372 56.493-22.618 56.493-90.08L57.507.006" fill="#7C42BA"/><path d="M10.417 33.674H5.109v-5.292h5.308v5.292zm-.259 15.188h-4.79v-4.776h4.79v4.776zM9.9 64.05H5.626v-4.26H9.9v4.26zm6.342-36.183h-5.308v-5.291h5.308v5.291zm-.258 15.188h-4.791V38.28h4.79v4.775zm-.259 15.188h-4.274v-4.26h4.274v4.26zm-.258 15.188H11.71v-3.745h3.757v3.745zm6.6-39.757H16.76v-5.292h5.309v5.292zm-.258 15.188h-4.79v-4.776h4.79v4.776zm-.258 15.188h-4.275v-4.26h4.275v4.26zm-.259 15.188h-3.757v-3.745h3.757v3.745zm6.601-51.37h-5.308v-5.292h5.308v5.291zm-.258 15.187h-4.791V38.28h4.79v4.775zm-.259 15.188h-4.274v-4.26h4.274v4.26zm-.259 15.188h-3.756v-3.745h3.756v3.745zm-.258 15.188h-3.24v-3.23h3.24v3.23zm7.118-70.13h-4.274v-4.81h4.274v4.81zm-.259 15.185H28.41v-5.292h5.308v5.292zm-.258 15.188h-4.791v-4.776h4.79v4.776zM33.2 64.05h-4.274v-4.26h4.274v4.26zm-.258 15.188h-3.757v-3.745h3.757v3.745zm-.259 15.187h-3.24v-3.23h3.24v3.23zm6.86-66.558h-5.308v-5.291h5.308v5.291zm-.259 15.188h-4.79V38.28h4.79v4.775zm-.258 15.188h-4.274v-4.26h4.274v4.26zm-.259 15.188h-3.757v-3.745h3.757v3.745zm-.258 15.188h-3.24v-3.23h3.24v3.23zm-.259 15.188h-2.723v-2.714h2.723v2.714zm7.377-85.321h-5.825v-5.807h5.825v5.807zm-.259 15.188h-5.308v-5.292h5.308v5.292zm-.258 15.188H40.32v-4.776h4.79v4.776zm-.259 15.188h-4.274v-4.26h4.274v4.26zm-.258 15.188h-3.757v-3.745h3.757v3.745zm-.259 15.187h-3.24v-3.23h3.24v3.23zm-.259 15.188h-2.722V106.9h2.722v2.714zm7.377-96.934h-5.825V6.873h5.825v5.806zm-.258 15.188h-5.309v-5.291h5.309v5.291zm-.259 15.188h-4.791V38.28h4.791v4.775zm-.259 15.188h-4.274v-4.26h4.274v4.26zm-.258 15.188h-3.757v-3.745h3.757v3.745zm-.259 15.188h-3.24v-3.23h3.24v3.23zm-.258 15.188h-2.723v-2.714h2.723v2.714zm7.377-85.321h-5.826v-5.807h5.826v5.807zm-.259 15.188h-5.308v-5.292h5.308v5.292zm-.259 15.188h-4.79v-4.776h4.79v4.776zm-.258 15.188h-4.274v-4.26h4.274v4.26zm-.259 15.188h-3.757v-3.745h3.757v3.745zm-.258 15.187h-3.24v-3.23h3.24v3.23zm-.259 15.188h-2.723V106.9h2.723v2.714zm7.377-96.934h-5.825V6.873h5.825v5.806zm-.259 15.188h-5.308v-5.291h5.308v5.291zm-.258 15.188h-4.791V38.28h4.79v4.775zm-.259 15.188h-4.274v-4.26h4.274v4.26zm-.258 15.188h-3.757v-3.745h3.757v3.745zm-.259 15.188h-3.24v-3.23h3.24v3.23zm-.258 15.188H58.83v-2.714h2.723v2.714zm7.376-85.321h-5.825v-5.807h5.825v5.807zm-.258 15.188h-5.309v-5.292h5.309v5.292zm-.259 15.188h-4.79v-4.776h4.79v4.776zm-.258 15.188h-4.275v-4.26h4.275v4.26zm-.259 15.188h-3.757v-3.745h3.757v3.745zm-.259 15.187h-3.24v-3.23h3.24v3.23zm-.258 15.188h-2.723V106.9h2.723v2.714zm5.826-96.934h-4.275V6.873h4.275v5.806zm1.292 15.188h-5.308v-5.291h5.308v5.291zm-.259 15.188h-4.79V38.28h4.79v4.775zm-.258 15.188h-4.274v-4.26h4.274v4.26zm-.259 15.188h-3.757v-3.745h3.757v3.745zm-.258 15.188h-3.24v-3.23h3.24v3.23zm-.259 15.188h-2.722v-2.714h2.722v2.714zm7.377-85.321h-5.825v-5.807h5.825v5.807zm-.259 15.188h-5.308v-5.292h5.308v5.292zm-.258 15.188h-4.791v-4.776h4.79v4.776zm-.259 15.188H75.53v-4.26h4.274v4.26zm-.258 15.188h-3.757v-3.745h3.757v3.745zm-.259 15.187h-3.24v-3.23h3.24v3.23zm6.86-66.558h-5.309v-5.291h5.309v5.291zm-.259 15.188h-4.79V38.28h4.79v4.775zm-.258 15.188h-4.275v-4.26h4.275v4.26zm-.259 15.188h-3.757v-3.745h3.757v3.745zm-.258 15.188h-3.24v-3.23h3.24v3.23zm6.86-54.945h-5.31v-5.292h5.31v5.292zm-.26 15.188h-4.79v-4.776h4.79v4.776zm-.258 15.188h-4.274v-4.26h4.274v4.26zm-.259 15.188H87.44v-3.745h3.756v3.745zm-.258 15.187h-3.24v-3.23h3.24v3.23zm6.86-66.558h-5.309v-5.291h5.308v5.291zm-.26 15.188h-4.79V38.28h4.79v4.775zm-.258 15.188h-4.274v-4.26h4.274v4.26zm-.258 15.188h-3.757v-3.745h3.757v3.745zm-.259 15.188h-3.24v-3.23h3.24v3.23zm6.86-54.945h-5.308v-5.292h5.308v5.292zm-.259 15.188h-4.79v-4.776h4.79v4.776zm-.258 15.188h-4.274v-4.26h4.274v4.26zm-.259 15.188H99.09v-3.745h3.757v3.745zm6.343-36.183h-4.791V38.28h4.79v4.775zm-.259 15.188h-4.274v-4.26h4.274v4.26zm6.343-24.57h-5.309v-5.29h5.309v5.29z" fill="#6737A5"/><path fill="#FFE345" d="M57.5 57.252L46.684 64l2.941-12.592L40 42.987l12.633-1.035L57.5 30l4.867 11.952L75 42.987l-9.625 8.421L68.315 64zM84.5 68.634L77.393 73l1.932-8.148L73 59.403l8.302-.67L84.5 51l3.198 7.734 8.302.67-6.325 5.448L91.607 73zM30.5 68.634L23.393 73l1.932-8.148L19 59.403l8.302-.67L30.5 51l3.198 7.734 8.302.67-6.325 5.448L37.607 73z"/><path d="M57.507.006V0h-.014v.006L0 28.387c0 68.605 56.54 91.228 57.493 91.607V120l.007-.004.007.004v-.006C58.461 119.615 115 96.992 115 28.387L57.507.007m0 114.99V115h-.016v-.004C56.624 114.65 5 93.906 5 31.025L57.491 5.006V5l.009.003.007-.003v.006L110 31.025c0 62.881-51.624 83.624-52.493 83.971" fill="#612C99"/></g></svg>
