<svg width="46" height="48" xmlns="http://www.w3.org/2000/svg" xmlns:xlink="http://www.w3.org/1999/xlink"><use xlink:href="#path0_fill" transform="matrix(-1 0 0 1 45.91 0)" fill="#4B5772"/><use xlink:href="#path1_fill" transform="matrix(-1 0 0 1 26.37 22.8)" fill="#657090"/><use xlink:href="#path2_fill" transform="matrix(-1 0 0 1 33.85 22.77)" fill="#657090"/><use xlink:href="#path3_fill" transform="matrix(-1 0 0 1 34.36 14.48)" fill="#657090"/><use xlink:href="#path4_fill" transform="matrix(-1 0 0 1 45.91 0)" fill="#657090"/><g transform="translate(-986 -1158)"><use xlink:href="#path5_fill" transform="translate(999 1165)" fill="#E8EBEE"/></g><defs><path id="path0_fill" fill-rule="evenodd" d="M0 11.352c0 27.442 22.574 36.49 22.954 36.642.386-.151 22.96-9.2 22.96-36.642L22.959 0 0 11.352z"/><path id="path1_fill" fill-rule="evenodd" d="M12.98 6.238c.571-.323.633-.807.633-.807s-.517-.158-1.064.155a1.454 1.454 0 0 0-.25.183c.086-.19.16-.381.224-.57.153.018.638.044 1.096-.273.555-.384.547-.912.547-.912s-.572-.139-1.105.233a1.378 1.378 0 0 0-.384.409c.058-.25.1-.494.13-.729.13-.011.656-.082 1.045-.517.45-.501.293-1.014.293-1.014s-.615-.004-1.046.48a1.293 1.293 0 0 0-.244.409c.007-.217.003-.42-.006-.607.17-.047.637-.214.925-.672.36-.573.1-1.059.1-1.059s-.627.096-.968.648a1.226 1.226 0 0 0-.136.315c-.04-.255-.08-.41-.085-.431.15-.072.463-.26.616-.628.207-.498-.074-.851-.074-.851s-.491.15-.686.627a.961.961 0 0 0-.069.313 1.336 1.336 0 0 0-.183-.28c-.4-.471-.906-.463-.906-.463s-.096.484.29.93c.259.3.593.418.782.464.018.07.053.227.085.449a1.564 1.564 0 0 0-.337-.31c-.574-.394-1.121-.26-1.121-.26s.035.528.583.897a1.8 1.8 0 0 0 .938.292c.014.234.018.496.005.778a1.5 1.5 0 0 0-.415-.487c-.553-.43-1.117-.324-1.117-.324s-.001.536.527.939c.348.265.741.332.966.348a6.286 6.286 0 0 1-.166.88 1.407 1.407 0 0 0-.364-.639c-.478-.492-1.05-.456-1.05-.456s-.081.53.378.995c.316.32.714.43.926.468a5.559 5.559 0 0 1-.323.773c-.026-.19-.1-.434-.295-.676-.417-.518-.978-.53-.978-.53s-.132.513.27 1.002c.264.322.619.463.827.522a5.336 5.336 0 0 1-.343.51l-.096.122a1.281 1.281 0 0 0-.289-.737c-.399-.5-.94-.515-.94-.515s-.132.489.253.962c.257.316.603.451.803.507-.234.286-.469.549-.704.79.022-.183.01-.444-.141-.726a1.235 1.235 0 0 0-.795-.625s-.213.45.066.956c.186.34.492.518.67.599-.277.272-.552.517-.82.735.072-.178.136-.444.061-.764-.136-.585-.604-.778-.604-.778s-.325.402-.19.96c.098.4.376.645.522.75a11.09 11.09 0 0 1-.671.479c.048-.152.079-.36.015-.602a.999.999 0 0 0-.546-.66s-.273.35-.14.828c.081.297.28.493.415.597a9.635 9.635 0 0 1-.714.402c.035-.162.049-.39-.058-.649-.206-.497-.654-.622-.654-.622s-.236.38-.035.854c.116.274.324.448.476.548-.166.077-.314.14-.442.19C4.31 11.425 1.482 11.677.16 11.735c-.131.081-.2.513-.135.576 2.175-.19 4.578-.753 7.354-1.888.097.17.312.453.756.623.656.253 1.195.017 1.195.017s-.12-.494-.748-.74a1.92 1.92 0 0 0-.833-.116l.036-.027c.172-.089.356-.19.55-.306.101.122.407.43.988.519.722.11 1.19-.226 1.19-.226s-.257-.453-.952-.563a2.063 2.063 0 0 0-.91.073c.235-.153.482-.326.737-.523.114.105.47.382 1.076.403.742.026 1.161-.366 1.161-.366s-.329-.42-1.045-.446a2.055 2.055 0 0 0-.915.186c.253-.208.513-.44.773-.698.134.124.476.38 1.04.414.742.043 1.176-.344 1.176-.344s-.313-.436-1.028-.48a2.068 2.068 0 0 0-.968.188c.219-.226.438-.47.656-.734.163.085.559.246 1.085.14.696-.14.968-.618.968-.618s-.432-.34-1.103-.204c-.245.049-.447.147-.607.251.103-.136.197-.273.284-.412.162.025.59.059 1.04-.197z"/><path id="path2_fill" fill-rule="evenodd" d="M1.192 6.239c-.57-.324-.633-.807-.633-.807s.517-.16 1.064.154c.098.055.177.118.25.183a6.081 6.081 0 0 1-.224-.57 1.639 1.639 0 0 1-1.096-.273C0 4.542.006 4.014.006 4.014s.572-.139 1.105.233c.176.123.297.27.384.409a6.82 6.82 0 0 1-.13-.728A1.652 1.652 0 0 1 .32 3.41C-.13 2.909.026 2.397.026 2.397s.616-.004 1.047.48c.119.134.194.274.244.408a7.56 7.56 0 0 1 .006-.607c-.17-.047-.637-.213-.925-.672-.36-.572-.1-1.058-.1-1.058s.627.095.968.647c.066.106.107.212.136.315.04-.255.08-.41.085-.43-.15-.073-.463-.261-.616-.63A.87.87 0 0 1 .945 0s.491.15.686.628A.952.952 0 0 1 1.7.94c.046-.092.102-.186.183-.28.4-.471.906-.462.906-.462s.096.484-.29.929c-.259.3-.593.418-.782.464-.018.07-.052.227-.085.45.085-.107.195-.214.337-.312.574-.393 1.121-.26 1.121-.26s-.035.529-.583.899c-.341.23-.712.283-.938.29a7.144 7.144 0 0 0-.005.78c.083-.157.212-.331.415-.488.553-.43 1.118-.324 1.118-.324s0 .536-.529.939c-.347.265-.74.333-.965.348.033.283.087.578.167.88.048-.187.148-.417.364-.639.477-.491 1.049-.456 1.049-.456s.081.53-.378.996c-.316.318-.714.429-.926.467.085.257.192.516.323.773.026-.19.1-.434.295-.676.417-.518.978-.53.978-.53s.132.513-.27 1.002a1.651 1.651 0 0 1-.827.522c.102.172.216.343.343.51l.096.122c.01-.191.07-.464.289-.737.399-.5.94-.515.94-.515s.132.489-.253.962a1.595 1.595 0 0 1-.803.507c.234.286.469.549.704.791a1.216 1.216 0 0 1 .142-.727c.287-.533.794-.624.794-.624s.213.45-.066.955c-.186.34-.492.518-.67.599.278.273.552.517.82.735a1.253 1.253 0 0 1-.061-.763c.136-.586.604-.779.604-.779s.325.402.19.96c-.098.4-.376.645-.521.75.23.179.455.337.67.479a1.067 1.067 0 0 1-.015-.602c.134-.5.546-.66.546-.66s.274.35.14.828c-.081.297-.28.493-.415.597.256.158.496.291.714.402a1.073 1.073 0 0 1 .058-.649c.206-.497.654-.622.654-.622s.236.38.036.854a1.24 1.24 0 0 1-.477.548c.166.077.314.14.442.19 2.584 1.063 5.411 1.316 6.733 1.373.132.081.2.513.135.576-2.175-.19-4.577-.753-7.354-1.888-.096.17-.312.453-.756.623-.656.254-1.195.017-1.195.017s.12-.494.749-.74c.3-.118.6-.132.832-.116l-.036-.027a9.618 9.618 0 0 1-.55-.306c-.1.122-.407.43-.988.52-.721.11-1.19-.227-1.19-.227s.257-.453.952-.563c.358-.056.68.003.91.073a10.733 10.733 0 0 1-.737-.523c-.114.105-.47.382-1.076.403-.742.026-1.161-.366-1.161-.366s.33-.42 1.045-.445a2.06 2.06 0 0 1 .915.185c-.253-.208-.512-.44-.773-.698-.134.124-.476.381-1.04.414-.742.043-1.176-.344-1.176-.344s.313-.436 1.028-.48c.402-.024.742.086.968.188a12.79 12.79 0 0 1-.656-.734c-.163.086-.559.246-1.085.14C1.078 7.278.805 6.8.805 6.8s.432-.34 1.103-.204c.245.049.447.147.607.251a5.867 5.867 0 0 1-.285-.411c-.161.025-.59.058-1.038-.197z"/><path id="path3_fill" fill-rule="evenodd" d="M21.349 2.4L22.93 0 14.1 1.504l-2.636 9.924L8.83 1.504 0 0l1.581 2.4 5.502.737.683 2.136-3.516-.344 1.153 1.92 2.953.27 3.105 9.617 3.113-9.617 2.953-.27 1.153-1.92-3.517.344.684-2.136 5.502-.736z"/><path id="path4_fill" fill-rule="evenodd" d="M22.96.003V0h-.006v.003L0 11.355c0 27.442 22.574 36.49 22.954 36.642V48l.003-.001.002.001v-.003c.381-.151 22.955-9.2 22.955-36.642L22.959.003zm-.13 46.448v.001h-.006v-.001c-.355-.143-21.473-8.61-21.473-34.28L22.824 1.55v-.002l.003.002.003-.002v.002l21.474 10.622c0 25.67-21.118 34.137-21.474 34.28z"/><path id="path5_fill" fill-rule="evenodd" d="M18.375 9.333h-1.313V6.667C17.063 2.987 14.123 0 10.5 0 6.878 0 3.937 2.987 3.937 6.667v2.666H2.625C1.175 9.333 0 10.527 0 12v13.333C0 26.807 1.175 28 2.625 28h15.75C19.825 28 21 26.807 21 25.333V12c0-1.473-1.175-2.667-2.625-2.667zm-7.875 12c-1.45 0-2.625-1.193-2.625-2.666C7.875 17.193 9.05 16 10.5 16s2.625 1.193 2.625 2.667c0 1.473-1.175 2.666-2.625 2.666zm4.069-12H6.43V6.667c0-2.28 1.825-4.134 4.069-4.134 2.244 0 4.069 1.854 4.069 4.134v2.666z"/></defs></svg>
