<svg width="46" height="48" fill="none" xmlns="http://www.w3.org/2000/svg"><path fill-rule="evenodd" clip-rule="evenodd" d="M46 11.26c0 27.213-22.42 36.187-22.797 36.337C22.819 47.447.4 38.473.4 11.261L23.197.003 46 11.26z" fill="#4B5772"/><path d="M15.275 13.873l-1.97-2.737a.62.62 0 0 1-.04-.619c.1-.2.321-.32.542-.32h5.952V8.58c0-.32.14-.579.482-.579h6.635c.342 0 .724.26.724.58V24.2c0 .34-.261.6-.603.6a.59.59 0 0 1-.603-.6v-8.01h-3.82v.78c0 .339-.383.619-.724.619h-8.043c-.342-.02-.623-.3-.603-.64 0-.12.04-.22.1-.32l1.971-2.756z" fill="#657090"/><path d="M11.4 29.6l-4.2 3.8c1.333 1.867 4.84 5.56 6.6 7.8 1.76 2.24 6.133 4.2 9.2 5.8 3.333-2.467 10.12-6.96 12.2-8.4 2.08-1.44 5.533-7.8 7-10.8l-2-1.8c-1.6.933-5.04 3.2-5.2 3.2-.16 0-5.333-5.667-8-8.4L15.8 32l-4.4-2.4z" fill="#657090"/><path d="M11 32l.4-2.4 4.4 2.4-1.4.8-1.6.6-2 2.8v-1.4L12 32h-1zM26 25.8l1-5 8 8.4-1.4.6-3 1-1.4 2.2-5 7.8 1.8-9.2c.4-.667 1.2-2.08 1.2-2.4v-2.8l-1.2-.6zM39.2 30.2l1-4.2 2 1.6-.8 2.6-2.6 4.4-1 .4 1.4-2.4 1-2.4h-1z" fill="#3E4B69"/><path fill-rule="evenodd" clip-rule="evenodd" d="M22.997.003V0h.006v.003L46 11.355c0 27.442-22.616 36.49-22.997 36.642V48L23 47.999l-.003.001v-.003C22.616 47.846 0 38.797 0 11.355L22.997.003zm0 45.996V46h.006v-.001C23.351 45.859 44 37.562 44 12.409L23.003 2.003V2L23 2.001 22.997 2v.002L2 12.41c0 25.152 20.65 33.45 20.997 33.589z" fill="#657090"/><path fill-rule="evenodd" clip-rule="evenodd" d="M30.375 17.333h-1.313v-2.666c0-3.68-2.94-6.667-6.562-6.667-3.622 0-6.563 2.987-6.563 6.667v2.666h-1.312C13.175 17.333 12 18.527 12 20v13.333C12 34.807 13.175 36 14.625 36h15.75C31.825 36 33 34.807 33 33.333V20c0-1.473-1.175-2.667-2.625-2.667zm-7.875 12c-1.45 0-2.625-1.193-2.625-2.666C19.875 25.193 21.05 24 22.5 24s2.625 1.193 2.625 2.667c0 1.473-1.175 2.666-2.625 2.666zm4.069-12H18.43v-2.666c0-2.28 1.825-4.134 4.069-4.134 2.244 0 4.069 1.854 4.069 4.134v2.666z" fill="#E8EBEE"/></svg>
