<svg width="46" height="48" xmlns="http://www.w3.org/2000/svg" xmlns:xlink="http://www.w3.org/1999/xlink"><use xlink:href="#path0_fill" fill="#4B5772"/><use xlink:href="#path1_fill" transform="translate(22.83)" fill="#3E4B69"/><use xlink:href="#path2_fill" fill="#657090"/><use xlink:href="#path3_fill" transform="translate(8.342 11.209)" fill="#657090"/><use xlink:href="#path4_fill" transform="translate(10.727 14.011)" fill="#4B5772"/><use xlink:href="#path5_fill" transform="translate(10.727 18.015)" fill="#4B5772"/><use xlink:href="#path6_fill" transform="translate(10.727 22.018)" fill="#4B5772"/><use xlink:href="#path7_fill" transform="translate(21.46 18.815)" fill="#657090"/><use xlink:href="#path6_fill" transform="translate(25.04 22.818)" fill="#4B5772"/><use xlink:href="#path8_fill" transform="translate(25.04 27.622)" fill="#4B5772"/><use xlink:href="#path9_fill" transform="translate(25.04 25.22)" fill="#4B5772"/><use xlink:href="#path10_fill" transform="translate(25.79 34.555)" fill="#00A871"/><use xlink:href="#path11_fill" transform="translate(27.45 37.043)" fill="#008F61"/><use xlink:href="#path12_fill" transform="translate(28.79 39.059)" fill="#008F61"/><use xlink:href="#path11_fill" transform="translate(26.33 35.368)" fill="#008F61"/><use xlink:href="#path13_fill" transform="translate(30 40.877)" fill="#008F61"/><use xlink:href="#path14_fill" transform="translate(12.658 40.906)" fill="#82D0EF"/><use xlink:href="#path15_fill" transform="translate(22.81 47.6)" fill="#1B4872"/><use xlink:href="#path16_fill" transform="translate(22.81 45.396)" fill="#0064A0"/><use xlink:href="#path17_fill" transform="translate(22.6 29.766)" fill="#0064A0"/><use xlink:href="#path18_fill" transform="translate(22.6 28.968)" fill="#005296"/><use xlink:href="#path19_fill" transform="translate(25.03 26.405)" fill="#1D0806"/><use xlink:href="#path20_fill" transform="translate(16.83 23.624)" fill="#00A871"/><g transform="translate(-986 -758)"><use xlink:href="#path21_fill" transform="translate(998 765)" fill="#E8EBEE"/></g><defs><path id="path0_fill" fill-rule="evenodd" d="M0 11.262C0 38.48 22.451 47.455 22.83 47.606c.384-.15 22.835-9.126 22.835-36.344L22.835.002 0 11.262z"/><path id="path1_fill" fill-rule="evenodd" d="M.689.338L0 .93V.004L.003.002V0h.005v.002l.681.336zm2.114 1.043L0 3.787V2.36l1.746-1.5 1.057.522zm14.35 7.077L0 23.188v-1.43l16.096-13.82 1.057.52zM19.266 9.5L0 26.045v-1.43L18.21 8.98l1.056.52zM0 28.75l21.269-18.263-1.057-.52L0 27.322v1.429zm22.831-16.973L0 31.383v-1.428l22.158-19.028.68.335c0 .107-.002.212-.004.317l-.003.2zm-.121 2.963L0 34.24v-1.43L22.794 13.24a48.56 48.56 0 0 1-.084 1.502zM0 42.437l20.808-17.868c.205-.625.397-1.265.574-1.921L0 41.008v1.429zm0 3.168l18.84-16.179c.365-.745.71-1.518 1.036-2.317L0 44.176v1.429zm22.363-27.71L0 37.098v-1.43L22.57 16.29c-.06.545-.13 1.078-.207 1.606zM0 39.805L21.76 21.12c.13-.569.251-1.147.36-1.737L0 38.376v1.429zm0-33.31l4.804-4.127-1.056-.52L0 5.064v1.43zm.002 41.113v-.002L0 47.605v-.571l17.397-14.94a37.571 37.571 0 0 1-2.247 3.358L2.246 46.535C.922 47.24.08 47.578.008 47.606v.002l-.003-.001-.003.001zM0 9.126l6.752-5.798-1.057-.521L0 7.697v1.429zm0 5.94l11.146-9.57-1.057-.522L0 13.638v1.428zm13.148-8.583L0 17.773v-1.428L12.091 5.962l1.057.521zM0 12.21l9.032-7.756-1.057-.521L0 10.78v1.429zm15.095-4.766L0 20.406v-1.43L14.038 6.922l1.057.521z"/><path id="path2_fill" fill-rule="evenodd" d="M22.835.002V0h-.005v.002L0 11.262C0 38.48 22.451 47.455 22.83 47.606v.002l.002-.001.003.001v-.002c.379-.15 22.83-9.126 22.83-36.344L22.835.002zm0 45.654v.001h-.006v-.001c-.347-.138-20.958-8.38-20.958-33.366L22.829 1.952V1.95h.006v.002l20.96 10.338c0 24.986-20.613 33.228-20.96 33.366z"/><path id="path3_fill" fill-rule="evenodd" d="M2 0a2 2 0 0 0-2 2v11.613a2 2 0 0 0 2 2h3.566l-1.988 3.202 5.963-3.202h8.734a2 2 0 0 0 2-2V2a2 2 0 0 0-2-2H2z"/><path id="path4_fill" fill-rule="evenodd" d="M0 .6A.6.6 0 0 1 .6 0h13.907a.6.6 0 0 1 0 1.201H.6a.6.6 0 0 1-.6-.6z"/><path id="path5_fill" fill-rule="evenodd" d="M0 .6A.6.6 0 0 1 .6 0h9.931a.6.6 0 0 1 0 1.201H.601A.6.6 0 0 1 0 .601z"/><path id="path6_fill" fill-rule="evenodd" d="M0 .6A.6.6 0 0 1 .6 0h5.956a.6.6 0 1 1 0 1.201H.6a.6.6 0 0 1-.6-.6z"/><path id="path7_fill" fill-rule="evenodd" d="M9.44 14.037a7.105 7.105 0 0 1-2.284.375C3.204 14.412 0 11.185 0 7.206 0 3.226 3.204 0 7.156 0c3.952 0 7.156 3.226 7.156 7.206 0 2.03-.834 3.865-2.176 5.175l.983 3.632-3.68-1.976z"/><path id="path8_fill" fill-rule="evenodd" d="M0 .6A.6.6 0 0 1 .6 0h5.16a.6.6 0 1 1 0 1.201H.6a.6.6 0 0 1-.6-.6z"/><path id="path9_fill" fill-rule="evenodd" d="M0 .6A.6.6 0 0 1 .6 0h3.173a.6.6 0 0 1 0 1.201H.6a.6.6 0 0 1-.6-.6z"/><path id="path10_fill" fill-rule="evenodd" d="M3.603 5.412l.606.91-.606-.91zM2.262 3.397l.736 1.107-.736-1.107zM1.147 1.722l.51.766-.51-.766zM0 0l.541.813L0 0z"/><path id="path11_fill" fill-rule="evenodd" d="M0 0l.605.909L0 0z"/><path id="path12_fill" fill-rule="evenodd" d="M0 0l.605.909L0 0z"/><path id="path13_fill" fill-rule="evenodd" d="M0 0l.226.293L0 0z"/><path id="path14_fill" fill-rule="evenodd" d="M0 0c.135.194.313.354.521.465A40.583 40.583 0 0 1 0 0z"/><path id="path15_fill" fill-rule="evenodd" d="M0 0l.034.013L0 0z"/><path id="path16_fill" fill-rule="evenodd" d="M.625 0C.27.163.06.247.026.26V.26H.02V.26L0 .252v1.95l.006.001.015.006v.003l.003-.002.002.002v-.003c.017-.006.076-.03.17-.07C.32 1.53.632.26.632.12.63.1.629.057.625 0z"/><path id="path17_fill" fill-rule="evenodd" d="M0 0l.006.009L0 0z"/><path id="path18_fill" fill-rule="evenodd" d="M.531 0L0 .798l.002.004L.532 0z"/><path id="path19_fill" fill-rule="evenodd" d="M.226 0A6.232 6.232 0 0 0 0 .226 1.47 1.47 0 0 0 .226 0z"/><path id="path20_fill" fill-rule="evenodd" d="M.065 1.84L0 2.002l.065-.161zm.239-.586l-.014.034.014-.034zM.29 0l-.12.678L.29 0z"/><path id="path21_fill" fill-rule="evenodd" d="M18.375 9.333h-1.313V6.667C17.063 2.987 14.123 0 10.5 0 6.878 0 3.937 2.987 3.937 6.667v2.666H2.625C1.175 9.333 0 10.527 0 12v13.333C0 26.807 1.175 28 2.625 28h15.75C19.825 28 21 26.807 21 25.333V12c0-1.473-1.175-2.667-2.625-2.667zm-7.875 12c-1.45 0-2.625-1.193-2.625-2.666C7.875 17.193 9.05 16 10.5 16s2.625 1.193 2.625 2.667c0 1.473-1.175 2.666-2.625 2.666zm4.069-12H6.43V6.667c0-2.28 1.825-4.134 4.069-4.134 2.244 0 4.069 1.854 4.069 4.134v2.666z"/></defs></svg>
